<svg width="51" height="63" viewBox="0 0 51 63" fill="none" xmlns="http://www.w3.org/2000/svg">
<path d="M49.3729 21.4611C44.7783 24.3224 42.5213 28.3198 42.6069 33.4548C42.6489 37.4101 44.0487 40.7359 46.8022 43.4248C48.0546 44.6458 49.4544 45.5966 51 46.2683C50.8328 46.774 50.6657 47.2668 50.4994 47.7507C50.3306 48.2346 50.1428 48.7071 49.9361 49.17C49.4931 50.2735 48.9805 51.3488 48.4013 52.3897C47.8614 53.3563 47.2866 54.3037 46.6779 55.2299C45.9474 56.3041 45.1843 57.3565 44.3896 58.3858C43.7012 59.2694 43.0631 59.9629 42.4809 60.4702C40.8077 62.0255 39.0127 62.8468 37.0908 62.9293C35.7964 62.9293 34.1241 62.5094 32.0787 61.6654C30.2384 60.8675 28.4647 60.4694 26.7528 60.4694C24.9141 60.4694 23.0746 60.87 21.2384 61.6654C19.2746 62.5094 17.6887 62.9504 16.4782 62.9941C14.5959 63.0798 12.7605 62.2367 10.9622 60.4702C9.71303 59.3325 8.2457 57.5232 6.57663 55.0398C4.69924 52.3072 3.15122 49.1303 1.93997 45.5109C0.645559 41.7215 0 37.9353 0 34.1483C0 29.9414 0.875293 26.3219 2.63164 23.2907C4.00922 20.8526 5.84626 18.926 8.1436 17.5156C10.4401 16.1068 12.9268 15.3809 15.5996 15.3381C17.1872 15.3381 19.1099 15.8009 21.3636 16.7266C23.6222 17.6547 25.1463 18.1152 25.9401 18.1152C26.3156 18.1152 28.0085 17.5706 31.0157 16.475C33.8112 15.4635 36.1093 15.0459 37.9068 15.2118C42.9602 15.6771 46.7816 17.7583 49.3729 21.4611Z" fill="white"/>
<path d="M38.0328 1.26232C38.0328 4.41895 36.9253 7.36437 34.7103 10.1002C31.9964 13.3815 28.9052 14.855 25.437 14.5192C25.3958 14.3072 25.3744 14.1081 25.3744 13.9171V13.3191C25.3744 10.2888 26.5033 7.45014 28.7579 4.79683C29.8876 3.45278 31.3179 2.33611 33.0503 1.45086C34.7853 0.568855 36.4239 0.084155 37.9702 0C38.0114 0.210387 38.0328 0.419966 38.0328 0.631972V1.26232Z" fill="white"/>
</svg>
