<svg width="63" height="63" viewBox="0 0 63 63" fill="none" xmlns="http://www.w3.org/2000/svg">
<path fill-rule="evenodd" clip-rule="evenodd" d="M52.8342 9.61318C53.4189 6.23473 54.27 4.10949 55.2203 4.10427C56.9851 4.10949 58.4209 11.4773 58.4209 20.5736C58.4209 29.6698 56.9851 37.0429 55.2203 37.0429C54.4945 37.0429 53.8262 35.7896 53.2884 33.6905C52.4373 41.3717 50.6725 46.6508 48.6258 46.6508C47.0438 46.6508 45.6236 43.4812 44.6681 38.4788C44.0154 47.9928 42.3811 54.7392 40.4649 54.7392C39.264 54.7392 38.1676 52.0657 37.3583 47.7108C36.3819 56.6974 34.1315 63 31.5 63C28.8685 63 26.6129 56.7026 25.6417 47.7108C24.8376 52.0657 23.7412 54.7392 22.5351 54.7392C20.6188 54.7392 18.9846 47.9876 18.3319 38.4788C17.3764 43.4812 15.9615 46.6508 14.3742 46.6508C12.3327 46.6508 10.5627 41.3717 9.71159 33.6905C9.17902 35.7949 8.50547 37.0429 7.77971 37.0429C6.0097 37.0429 4.57906 29.6698 4.57906 20.5736C4.57906 11.4773 6.0097 4.10427 7.77971 4.10427C8.72998 4.10427 9.57583 6.23473 10.1658 9.61318C11.1109 3.78574 12.6407 0 14.3742 0C16.4314 0 18.2118 5.35748 19.0577 13.1326C19.8826 7.47227 21.1358 3.86407 22.5351 3.86407C24.4983 3.86407 26.1691 10.9604 26.7904 20.8608C27.9547 15.7852 29.6412 12.6 31.5052 12.6C33.3692 12.6 35.0557 15.7852 36.2148 20.8608C36.8361 10.9604 38.5017 3.86407 40.4702 3.86407C41.8695 3.86407 43.1174 7.47227 43.9475 13.1326C44.7882 5.35748 46.5738 0 48.6258 0C50.354 0 51.8891 3.79097 52.8342 9.61318ZM0 18.9548C0 14.8871 0.81452 11.5922 1.81701 11.5922C2.81949 11.5922 3.63401 14.8871 3.63401 18.9548C3.63401 23.0225 2.81949 26.3174 1.81701 26.3174C0.81452 26.3174 0 23.0173 0 18.9548ZM59.366 18.9548C59.366 14.8871 60.1805 11.5922 61.183 11.5922C62.1855 11.5922 63 14.8871 63 18.9548C63 23.0225 62.1855 26.3174 61.183 26.3174C60.1805 26.3174 59.366 23.0173 59.366 18.9548Z" fill="white"/>
</svg>
