<svg width="750" height="750" viewBox="0 0 750 750" fill="none" xmlns="http://www.w3.org/2000/svg">
<path d="M374.906 0C167.855 0 0 167.851 0 374.901C0 581.961 167.855 749.798 374.906 749.798C581.979 749.798 749.816 581.961 749.816 374.901C749.816 167.864 581.979 0.0179073 374.901 0.0179073L374.906 0ZM546.835 540.715C545.235 543.337 543.134 545.617 540.652 547.426C538.17 549.234 535.355 550.535 532.37 551.255C529.384 551.974 526.286 552.097 523.252 551.618C520.219 551.138 517.31 550.065 514.691 548.46C426.667 494.693 315.856 482.516 185.355 512.332C179.313 513.706 172.972 512.625 167.726 509.326C162.48 506.027 158.759 500.78 157.38 494.738C156.693 491.746 156.603 488.649 157.115 485.623C157.627 482.596 158.731 479.701 160.363 477.102C161.996 474.503 164.125 472.251 166.629 470.476C169.133 468.701 171.963 467.437 174.956 466.758C317.768 434.13 440.268 448.179 539.09 508.571C550.103 515.331 553.595 529.702 546.835 540.715ZM592.723 438.634C584.262 452.387 566.265 456.729 552.521 448.268C451.747 386.326 298.132 368.387 178.936 404.569C163.477 409.239 147.15 400.527 142.458 385.095C140.219 377.676 141.014 369.672 144.668 362.838C148.322 356.004 154.537 350.898 161.95 348.64C298.105 307.328 467.371 327.339 583.098 398.454C596.842 406.915 601.184 424.908 592.723 438.634ZM596.663 332.335C475.832 260.567 276.478 253.968 161.113 288.981C142.588 294.6 122.997 284.142 117.383 265.617C114.684 256.716 115.63 247.108 120.013 238.905C124.396 230.702 131.858 224.576 140.757 221.873C273.187 181.671 493.337 189.438 632.451 272.023C636.415 274.368 639.879 277.473 642.642 281.159C645.405 284.845 647.414 289.04 648.553 293.503C649.692 297.967 649.94 302.611 649.282 307.17C648.624 311.73 647.073 316.114 644.717 320.073C634.868 336.736 613.29 342.229 596.68 332.335H596.663Z" fill="white"/>
</svg>
