<svg width="66" height="43" viewBox="0 0 66 43" fill="none" xmlns="http://www.w3.org/2000/svg">
<path d="M11.0597 0H10.9232C7.59503 3.33592 4.18153 6.60512 0.819236 9.92436C0.546156 10.2079 0.188084 10.4414 0 10.7917C3.66951 14.3611 7.32196 17.9472 10.9915 21.5167C14.6439 17.9639 18.2796 14.3778 21.9317 10.8251V10.6916L14.3879 3.31924C13.2785 2.20171 12.1012 1.16757 11.0597 0Z" fill="white"/>
<path d="M33.0768 0H32.9403C29.339 3.63615 25.5671 7.15555 21.9829 10.8084C25.6866 14.3445 29.3049 17.9639 32.9915 21.5167C36.5244 18.0807 40.0407 14.628 43.5733 11.192C43.7269 11.0419 43.9147 10.9085 44 10.7083C40.4332 7.30566 36.9511 3.83631 33.4182 0.41699C33.2816 0.283553 33.1795 0.150116 33.0768 0Z" fill="white"/>
<path d="M55.0939 0H54.9573C53.1823 1.81808 51.339 3.55275 49.5299 5.33747C47.6866 7.12219 45.8774 8.94026 44.0171 10.7083C44.1024 10.9418 44.3243 11.0753 44.495 11.2587L54.9915 21.5167C58.7122 17.9973 62.2964 14.3445 66 10.8251C65.9491 10.6082 65.7273 10.4748 65.5904 10.3247C62.8258 7.62258 60.0776 4.93716 57.3126 2.23507C56.5787 1.48448 55.7766 0.800621 55.0939 0Z" fill="white"/>
<path d="M32.9573 21.5334C29.3561 25.0694 25.7378 28.5888 22.1365 32.1082C22.1024 32.1749 22.0683 32.275 22.0341 32.3417C24.5089 34.7269 26.9496 37.1288 29.407 39.5306C30.6191 40.6649 31.7626 41.8991 33.0085 43C33.8786 42.2494 34.6979 41.3487 35.5513 40.5481C38.1796 37.9961 40.8084 35.4108 43.4364 32.8588C43.6245 32.642 43.8805 32.4919 43.9997 32.225C40.3472 28.7056 36.7289 25.1528 33.1106 21.6001L32.9573 21.5334Z" fill="white"/>
</svg>
